<?xml version="1.0" standalone="no"?><!DOCTYPE svg PUBLIC "-//W3C//DTD SVG 1.1//EN" "http://www.w3.org/Graphics/SVG/1.1/DTD/svg11.dtd"><svg xmlns:xlink="http://www.w3.org/1999/xlink" height="400" width="600" xmlns="http://www.w3.org/2000/svg" style="font-family:'lucida grande', 'lucida sans unicode', arial, helvetica, sans-serif;font-size:12px;" version="1.1"><desc>Created with Highcharts 4.1.7</desc><defs><linearGradient id="highcharts-22" y2="1" x2="1" y1="0" x1="0"><stop stop-opacity="1" stop-color="rgb(255, 255, 255)" offset="0"></stop><stop stop-opacity="1" stop-color="rgb(240, 240, 255)" offset="1"></stop></linearGradient><clipPath id="highcharts-23"><rect height="213" width="516" y="0" x="0"></rect></clipPath></defs><rect class=" highcharts-background" stroke-width="2" stroke="#4572A7" fill="url(#highcharts-22)" strokeWidth="2" height="398" width="598" y="1" x="1"></rect><rect transform="translate(1, 1)" stroke-width="5" stroke-opacity="0.049999999999999996" stroke="black"  fill="none" height="213" width="516" y="46" x="74"></rect><rect transform="translate(1, 1)" stroke-width="3" stroke-opacity="0.09999999999999999" stroke="black"  fill="none" height="213" width="516" y="46" x="74"></rect><rect transform="translate(1, 1)" stroke-width="1" stroke-opacity="0.15" stroke="black"  fill="none" height="213" width="516" y="46" x="74"></rect><rect fill="rgb(255, 255, 255)" fill-opacity=" .9" height="213" width="516" y="46" x="74"></rect><g  class="highcharts-grid"><path opacity="1"  stroke-width="1" stroke="#D8D8D8" d="M 81.5 46 L 81.5 259" fill="none"></path><path opacity="1"  stroke-width="1" stroke="#D8D8D8" d="M 111.5 46 L 111.5 259" fill="none"></path><path opacity="1"  stroke-width="1" stroke="#D8D8D8" d="M 141.5 46 L 141.5 259" fill="none"></path><path opacity="1"  stroke-width="1" stroke="#D8D8D8" d="M 172.5 46 L 172.5 259" fill="none"></path><path opacity="1"  stroke-width="1" stroke="#D8D8D8" d="M 202.5 46 L 202.5 259" fill="none"></path><path opacity="1"  stroke-width="1" stroke="#D8D8D8" d="M 232.5 46 L 232.5 259" fill="none"></path><path opacity="1"  stroke-width="1" stroke="#D8D8D8" d="M 263.5 46 L 263.5 259" fill="none"></path><path opacity="1"  stroke-width="1" stroke="#D8D8D8" d="M 293.5 46 L 293.5 259" fill="none"></path><path opacity="1"  stroke-width="1" stroke="#D8D8D8" d="M 323.5 46 L 323.5 259" fill="none"></path><path opacity="1"  stroke-width="1" stroke="#D8D8D8" d="M 354.5 46 L 354.5 259" fill="none"></path><path opacity="1"  stroke-width="1" stroke="#D8D8D8" d="M 384.5 46 L 384.5 259" fill="none"></path><path opacity="1"  stroke-width="1" stroke="#D8D8D8" d="M 414.5 46 L 414.5 259" fill="none"></path><path opacity="1"  stroke-width="1" stroke="#D8D8D8" d="M 445.5 46 L 445.5 259" fill="none"></path><path opacity="1"  stroke-width="1" stroke="#D8D8D8" d="M 475.5 46 L 475.5 259" fill="none"></path><path opacity="1"  stroke-width="1" stroke="#D8D8D8" d="M 506.5 46 L 506.5 259" fill="none"></path><path opacity="1"  stroke-width="1" stroke="#D8D8D8" d="M 536.5 46 L 536.5 259" fill="none"></path><path opacity="1"  stroke-width="1" stroke="#D8D8D8" d="M 566.5 46 L 566.5 259" fill="none"></path></g><g  class="highcharts-grid"><path opacity="1" stroke-width="1" stroke="#E0E0E0" d="M 74 259.5 L 590 259.5" fill="none"></path><path opacity="1" stroke-width="1" stroke="#E0E0E0" d="M 74 245.5 L 590 245.5" fill="none"></path><path opacity="1" stroke-width="1" stroke="#E0E0E0" d="M 74 231.5 L 590 231.5" fill="none"></path><path opacity="1" stroke-width="1" stroke="#E0E0E0" d="M 74 216.5 L 590 216.5" fill="none"></path><path opacity="1" stroke-width="1" stroke="#E0E0E0" d="M 74 202.5 L 590 202.5" fill="none"></path><path opacity="1" stroke-width="1" stroke="#E0E0E0" d="M 74 188.5 L 590 188.5" fill="none"></path><path opacity="1" stroke-width="1" stroke="#E0E0E0" d="M 74 174.5 L 590 174.5" fill="none"></path><path opacity="1" stroke-width="1" stroke="#E0E0E0" d="M 74 160.5 L 590 160.5" fill="none"></path><path opacity="1" stroke-width="1" stroke="#E0E0E0" d="M 74 145.5 L 590 145.5" fill="none"></path><path opacity="1" stroke-width="1" stroke="#E0E0E0" d="M 74 131.5 L 590 131.5" fill="none"></path><path opacity="1" stroke-width="1" stroke="#E0E0E0" d="M 74 117.5 L 590 117.5" fill="none"></path><path opacity="1" stroke-width="1" stroke="#E0E0E0" d="M 74 103.5 L 590 103.5" fill="none"></path><path opacity="1" stroke-width="1" stroke="#E0E0E0" d="M 74 89.5 L 590 89.5" fill="none"></path><path opacity="1" stroke-width="1" stroke="#E0E0E0" d="M 74 74.5 L 590 74.5" fill="none"></path><path opacity="1" stroke-width="1" stroke="#E0E0E0" d="M 74 60.5 L 590 60.5" fill="none"></path><path opacity="1" stroke-width="1" stroke="#E0E0E0" d="M 74 46.5 L 590 46.5" fill="none"></path><path opacity="1"  stroke-width="1" stroke="#D8D8D8" d="M 74 259.5 L 590 259.5" fill="none"></path><path opacity="1"  stroke-width="1" stroke="#D8D8D8" d="M 74 188.5 L 590 188.5" fill="none"></path><path opacity="1"  stroke-width="1" stroke="#D8D8D8" d="M 74 117.5 L 590 117.5" fill="none"></path><path opacity="1"  stroke-width="1" stroke="#D8D8D8" d="M 74 46.5 L 590 46.5" fill="none"></path></g><rect  fill="none" stroke-width="1" stroke="#C0C0C0" strokeWidth="-1" height="214" width="517" y="45.5" x="73.5"></rect><g  class="highcharts-axis"><path opacity="1" stroke-width="1" stroke="#000" d="M 81.5 259 L 81.5 269" fill="none"></path><path opacity="1" stroke-width="1" stroke="#000" d="M 111.5 259 L 111.5 269" fill="none"></path><path opacity="1" stroke-width="1" stroke="#000" d="M 141.5 259 L 141.5 269" fill="none"></path><path opacity="1" stroke-width="1" stroke="#000" d="M 172.5 259 L 172.5 269" fill="none"></path><path opacity="1" stroke-width="1" stroke="#000" d="M 202.5 259 L 202.5 269" fill="none"></path><path opacity="1" stroke-width="1" stroke="#000" d="M 232.5 259 L 232.5 269" fill="none"></path><path opacity="1" stroke-width="1" stroke="#000" d="M 263.5 259 L 263.5 269" fill="none"></path><path opacity="1" stroke-width="1" stroke="#000" d="M 293.5 259 L 293.5 269" fill="none"></path><path opacity="1" stroke-width="1" stroke="#000" d="M 323.5 259 L 323.5 269" fill="none"></path><path opacity="1" stroke-width="1" stroke="#000" d="M 354.5 259 L 354.5 269" fill="none"></path><path opacity="1" stroke-width="1" stroke="#000" d="M 384.5 259 L 384.5 269" fill="none"></path><path opacity="1" stroke-width="1" stroke="#000" d="M 414.5 259 L 414.5 269" fill="none"></path><path opacity="1" stroke-width="1" stroke="#000" d="M 445.5 259 L 445.5 269" fill="none"></path><path opacity="1" stroke-width="1" stroke="#000" d="M 475.5 259 L 475.5 269" fill="none"></path><path opacity="1" stroke-width="1" stroke="#000" d="M 506.5 259 L 506.5 269" fill="none"></path><path opacity="1" stroke-width="1" stroke="#000" d="M 536.5 259 L 536.5 269" fill="none"></path><path opacity="1" stroke-width="1" stroke="#000" d="M 566.5 259 L 566.5 269" fill="none"></path><path visibility="visible"  stroke-width="1" stroke="#000" d="M 0 0" fill="none"></path></g><g  class="highcharts-axis"><path opacity="1" stroke-width="1" stroke="#000" d="M 74 259.5 L 64 259.5" fill="none"></path><path opacity="1" stroke-width="1" stroke="#000" d="M 74 188.5 L 64 188.5" fill="none"></path><path opacity="1" stroke-width="1" stroke="#000" d="M 74 117.5 L 64 117.5" fill="none"></path><path opacity="1" stroke-width="1" stroke="#000" d="M 74 46.5 L 64 46.5" fill="none"></path><text y="152.5" visibility="visible" style="color:#333;font-weight:bold;font-size:12px;font-family:trebuchet ms, verdana, sans-serif;fill:#333;" class=" highcharts-yaxis-title" transform="translate(0,0) rotate(270 25 152.5)" text-anchor="middle"  x="25"><tspan style="font-weight:bold">คน</tspan></text><path visibility="visible"  stroke-width="1" stroke="#000" d="M 0 0" fill="none"></path></g><g  class="highcharts-series-group"><g clip-path="url(#highcharts-23)" transform="translate(74,46) scale(1 1)"  visibility="visible" class="highcharts-series"><rect ry="0" rx="0" fill="#058DC7" height="62" width="8" y="152" x="4"></rect><rect ry="0" rx="0" fill="#50B432" height="64" width="8" y="150" x="19"></rect><rect ry="0" rx="0" fill="#ED561B" height="91" width="8" y="123" x="34"></rect><rect ry="0" rx="0" fill="#DDDF00" height="23" width="8" y="191" x="49"></rect><rect ry="0" rx="0" fill="#24CBE5" height="39" width="8" y="175" x="65"></rect><rect ry="0" rx="0" fill="#64E572" height="56" width="8" y="158" x="80"></rect><rect ry="0" rx="0" fill="#FF9655" height="86" width="8" y="128" x="95"></rect><rect ry="0" rx="0" fill="#FFF263" height="92" width="8" y="122" x="110"></rect><rect ry="0" rx="0" fill="#6AF9C4" height="108" width="8" y="106" x="125"></rect><rect ry="0" rx="0" fill="#058DC7" height="54" width="8" y="160" x="141"></rect><rect ry="0" rx="0" fill="#50B432" height="93" width="8" y="121" x="156"></rect><rect ry="0" rx="0" fill="#ED561B" height="76" width="8" y="138" x="171"></rect><rect ry="0" rx="0" fill="#DDDF00" height="39" width="8" y="175" x="186"></rect><rect ry="0" rx="0" fill="#24CBE5" height="30" width="8" y="184" x="201"></rect><rect ry="0" rx="0" fill="#64E572" height="136" width="8" y="78" x="216"></rect><rect ry="0" rx="0" fill="#FF9655" height="203" width="8" y="11" x="232"></rect><rect ry="0" rx="0" fill="#FFF263" height="184" width="8" y="30" x="247"></rect><rect ry="0" rx="0" fill="#6AF9C4" height="186" width="8" y="28" x="262"></rect><rect ry="0" rx="0" fill="#058DC7" height="90" width="8" y="124" x="277"></rect><rect ry="0" rx="0" fill="#50B432" height="124" width="8" y="90" x="292"></rect><rect ry="0" rx="0" fill="#ED561B" height="35" width="8" y="179" x="307"></rect><rect ry="0" rx="0" fill="#DDDF00" height="72" width="8" y="142" x="323"></rect><rect ry="0" rx="0" fill="#24CBE5" height="201" width="8" y="13" x="338"></rect><rect ry="0" rx="0" fill="#64E572" height="109" width="8" y="105" x="353"></rect><rect ry="0" rx="0" fill="#FF9655" height="139" width="8" y="75" x="368"></rect><rect ry="0" rx="0" fill="#FFF263" height="158" width="8" y="56" x="383"></rect><rect ry="0" rx="0" fill="#6AF9C4" height="199" width="8" y="15" x="399"></rect><rect ry="0" rx="0" fill="#058DC7" height="152" width="8" y="62" x="414"></rect><rect ry="0" rx="0" fill="#50B432" height="104" width="8" y="110" x="429"></rect><rect ry="0" rx="0" fill="#ED561B" height="181" width="8" y="33" x="444"></rect><rect ry="0" rx="0" fill="#DDDF00" height="79" width="8" y="135" x="459"></rect><rect ry="0" rx="0" fill="#24CBE5" height="93" width="8" y="121" x="474"></rect><rect ry="0" rx="0" fill="#64E572" height="110" width="8" y="104" x="490"></rect><rect ry="0" rx="0" fill="#FF9655" height="37" width="8" y="177" x="505"></rect></g><g clip-path="none" transform="translate(74,46) scale(1 1)"  visibility="visible" class="highcharts-markers"></g></g><text y="22" style="color:#000;font-size:18px;font:bold 16px 'trebuchet ms', verdana, sans-serif;fill:#000;width:536px;"  class="highcharts-title" text-anchor="middle" x="300">แผนภูมิแท่งเปรียบเทียบประชากร</text><g opacity="1" transform="translate(74,46) scale(1 1)"  visibility="visible" class="highcharts-data-labels"><g opacity="0" class="highcharts-drilldown-data-label" transform="translate(-5,128)" style="cursor:pointer;" ><text y="16" style="font-size:11px;font-weight:bold;color:#0d233a;text-shadow:0 0 6px contrast, 0 0 3px contrast;fill:#0d233a;text-decoration:underline;"  x="5"><tspan>440</tspan></text></g><g class="highcharts-drilldown-data-label" transform="translate(9,126)" style="cursor:pointer;" ><text y="16" style="font-size:11px;font-weight:bold;color:#0d233a;text-shadow:0 0 6px contrast, 0 0 3px contrast;fill:#0d233a;text-decoration:underline;"  x="5"><tspan>450</tspan></text></g><g class="highcharts-drilldown-data-label" transform="translate(24,99)" style="cursor:pointer;" ><text y="16" style="font-size:11px;font-weight:bold;color:#0d233a;text-shadow:0 0 6px contrast, 0 0 3px contrast;fill:#0d233a;text-decoration:underline;"  x="5"><tspan>641</tspan></text></g><g class="highcharts-drilldown-data-label" transform="translate(39,167)" style="cursor:pointer;" ><text y="16" style="font-size:11px;font-weight:bold;color:#0d233a;text-shadow:0 0 6px contrast, 0 0 3px contrast;fill:#0d233a;text-decoration:underline;"  x="5"><tspan>159</tspan></text></g><g opacity="0" class="highcharts-drilldown-data-label" transform="translate(55,151)" style="cursor:pointer;" ><text y="16" style="font-size:11px;font-weight:bold;color:#0d233a;text-shadow:0 0 6px contrast, 0 0 3px contrast;fill:#0d233a;text-decoration:underline;"  x="5"><tspan>278</tspan></text></g><g class="highcharts-drilldown-data-label" transform="translate(70,134)" style="cursor:pointer;" ><text y="16" style="font-size:11px;font-weight:bold;color:#0d233a;text-shadow:0 0 6px contrast, 0 0 3px contrast;fill:#0d233a;text-decoration:underline;"  x="5"><tspan>392</tspan></text></g><g class="highcharts-drilldown-data-label" transform="translate(85,104)" style="cursor:pointer;" ><text y="16" style="font-size:11px;font-weight:bold;color:#0d233a;text-shadow:0 0 6px contrast, 0 0 3px contrast;fill:#0d233a;text-decoration:underline;"  x="5"><tspan>609</tspan></text></g><g opacity="0" class="highcharts-drilldown-data-label" transform="translate(100,98)" style="cursor:pointer;" ><text y="16" style="font-size:11px;font-weight:bold;color:#0d233a;text-shadow:0 0 6px contrast, 0 0 3px contrast;fill:#0d233a;text-decoration:underline;"  x="5"><tspan>647</tspan></text></g><g class="highcharts-drilldown-data-label" transform="translate(115,82)" style="cursor:pointer;" ><text y="16" style="font-size:11px;font-weight:bold;color:#0d233a;text-shadow:0 0 6px contrast, 0 0 3px contrast;fill:#0d233a;text-decoration:underline;"  x="5"><tspan>763</tspan></text></g><g class="highcharts-drilldown-data-label" transform="translate(131,136)" style="cursor:pointer;" ><text y="16" style="font-size:11px;font-weight:bold;color:#0d233a;text-shadow:0 0 6px contrast, 0 0 3px contrast;fill:#0d233a;text-decoration:underline;"  x="5"><tspan>377</tspan></text></g><g class="highcharts-drilldown-data-label" transform="translate(146,97)" style="cursor:pointer;" ><text y="16" style="font-size:11px;font-weight:bold;color:#0d233a;text-shadow:0 0 6px contrast, 0 0 3px contrast;fill:#0d233a;text-decoration:underline;"  x="5"><tspan>657</tspan></text></g><g opacity="0" class="highcharts-drilldown-data-label" transform="translate(161,114)" style="cursor:pointer;" ><text y="16" style="font-size:11px;font-weight:bold;color:#0d233a;text-shadow:0 0 6px contrast, 0 0 3px contrast;fill:#0d233a;text-decoration:underline;"  x="5"><tspan>537</tspan></text></g><g class="highcharts-drilldown-data-label" transform="translate(176,151)" style="cursor:pointer;" ><text y="16" style="font-size:11px;font-weight:bold;color:#0d233a;text-shadow:0 0 6px contrast, 0 0 3px contrast;fill:#0d233a;text-decoration:underline;"  x="5"><tspan>275</tspan></text></g><g opacity="0" class="highcharts-drilldown-data-label" transform="translate(191,160)" style="cursor:pointer;" ><text y="16" style="font-size:11px;font-weight:bold;color:#0d233a;text-shadow:0 0 6px contrast, 0 0 3px contrast;fill:#0d233a;text-decoration:underline;"  x="5"><tspan>208</tspan></text></g><g class="highcharts-drilldown-data-label" transform="translate(206,54)" style="cursor:pointer;" ><text y="16" style="font-size:11px;font-weight:bold;color:#0d233a;text-shadow:0 0 6px contrast, 0 0 3px contrast;fill:#0d233a;text-decoration:underline;"  x="5"><tspan>957</tspan></text></g><g class="highcharts-drilldown-data-label" transform="translate(215,11)" style="cursor:pointer;" ><text y="16" style="font-size:11px;font-weight:bold;color:#0d233a;text-shadow:0 0 6px contrast, 0 0 3px contrast;fill:#0d233a;text-decoration:underline;"  x="5"><tspan>1 428</tspan></text></g><g opacity="0" class="highcharts-drilldown-data-label" transform="translate(230,9)" style="cursor:pointer;" ><text y="16" style="font-size:11px;font-weight:bold;color:#0d233a;text-shadow:0 0 6px contrast, 0 0 3px contrast;fill:#0d233a;text-decoration:underline;"  x="5"><tspan>1 293</tspan></text></g><g opacity="0" class="highcharts-drilldown-data-label" transform="translate(245,7)" style="cursor:pointer;" ><text y="16" style="font-size:11px;font-weight:bold;color:#0d233a;text-shadow:0 0 6px contrast, 0 0 3px contrast;fill:#0d233a;text-decoration:underline;"  x="5"><tspan>1 313</tspan></text></g><g class="highcharts-drilldown-data-label" transform="translate(267,100)" style="cursor:pointer;" ><text y="16" style="font-size:11px;font-weight:bold;color:#0d233a;text-shadow:0 0 6px contrast, 0 0 3px contrast;fill:#0d233a;text-decoration:underline;"  x="5"><tspan>633</tspan></text></g><g class="highcharts-drilldown-data-label" transform="translate(282,66)" style="cursor:pointer;" ><text y="16" style="font-size:11px;font-weight:bold;color:#0d233a;text-shadow:0 0 6px contrast, 0 0 3px contrast;fill:#0d233a;text-decoration:underline;"  x="5"><tspan>870</tspan></text></g><g class="highcharts-drilldown-data-label" transform="translate(297,155)" style="cursor:pointer;" ><text y="16" style="font-size:11px;font-weight:bold;color:#0d233a;text-shadow:0 0 6px contrast, 0 0 3px contrast;fill:#0d233a;text-decoration:underline;"  x="5"><tspan>246</tspan></text></g><g class="highcharts-drilldown-data-label" transform="translate(313,118)" style="cursor:pointer;" ><text y="16" style="font-size:11px;font-weight:bold;color:#0d233a;text-shadow:0 0 6px contrast, 0 0 3px contrast;fill:#0d233a;text-decoration:underline;"  x="5"><tspan>507</tspan></text></g><g class="highcharts-drilldown-data-label" transform="translate(321,13)" style="cursor:pointer;" ><text y="16" style="font-size:11px;font-weight:bold;color:#0d233a;text-shadow:0 0 6px contrast, 0 0 3px contrast;fill:#0d233a;text-decoration:underline;"  x="5"><tspan>1 414</tspan></text></g><g class="highcharts-drilldown-data-label" transform="translate(343,81)" style="cursor:pointer;" ><text y="16" style="font-size:11px;font-weight:bold;color:#0d233a;text-shadow:0 0 6px contrast, 0 0 3px contrast;fill:#0d233a;text-decoration:underline;"  x="5"><tspan>765</tspan></text></g><g class="highcharts-drilldown-data-label" transform="translate(358,51)" style="cursor:pointer;" ><text y="16" style="font-size:11px;font-weight:bold;color:#0d233a;text-shadow:0 0 6px contrast, 0 0 3px contrast;fill:#0d233a;text-decoration:underline;"  x="5"><tspan>976</tspan></text></g><g opacity="0" class="highcharts-drilldown-data-label" transform="translate(366,35)" style="cursor:pointer;" ><text y="16" style="font-size:11px;font-weight:bold;color:#0d233a;text-shadow:0 0 6px contrast, 0 0 3px contrast;fill:#0d233a;text-decoration:underline;"  x="5"><tspan>1 114</tspan></text></g><g class="highcharts-drilldown-data-label" transform="translate(382,15)" style="cursor:pointer;" ><text y="16" style="font-size:11px;font-weight:bold;color:#0d233a;text-shadow:0 0 6px contrast, 0 0 3px contrast;fill:#0d233a;text-decoration:underline;"  x="5"><tspan>1 404</tspan></text></g><g class="highcharts-drilldown-data-label" transform="translate(397,41)" style="cursor:pointer;" ><text y="16" style="font-size:11px;font-weight:bold;color:#0d233a;text-shadow:0 0 6px contrast, 0 0 3px contrast;fill:#0d233a;text-decoration:underline;"  x="5"><tspan>1 071</tspan></text></g><g class="highcharts-drilldown-data-label" transform="translate(419,86)" style="cursor:pointer;" ><text y="16" style="font-size:11px;font-weight:bold;color:#0d233a;text-shadow:0 0 6px contrast, 0 0 3px contrast;fill:#0d233a;text-decoration:underline;"  x="5"><tspan>730</tspan></text></g><g class="highcharts-drilldown-data-label" transform="translate(427,12)" style="cursor:pointer;" ><text y="16" style="font-size:11px;font-weight:bold;color:#0d233a;text-shadow:0 0 6px contrast, 0 0 3px contrast;fill:#0d233a;text-decoration:underline;"  x="5"><tspan>1 277</tspan></text></g><g class="highcharts-drilldown-data-label" transform="translate(449,111)" style="cursor:pointer;" ><text y="16" style="font-size:11px;font-weight:bold;color:#0d233a;text-shadow:0 0 6px contrast, 0 0 3px contrast;fill:#0d233a;text-decoration:underline;"  x="5"><tspan>556</tspan></text></g><g opacity="0" class="highcharts-drilldown-data-label" transform="translate(464,97)" style="cursor:pointer;" ><text y="16" style="font-size:11px;font-weight:bold;color:#0d233a;text-shadow:0 0 6px contrast, 0 0 3px contrast;fill:#0d233a;text-decoration:underline;"  x="5"><tspan>655</tspan></text></g><g class="highcharts-drilldown-data-label" transform="translate(480,80)" style="cursor:pointer;" ><text y="16" style="font-size:11px;font-weight:bold;color:#0d233a;text-shadow:0 0 6px contrast, 0 0 3px contrast;fill:#0d233a;text-decoration:underline;"  x="5"><tspan>777</tspan></text></g><g class="highcharts-drilldown-data-label" transform="translate(493,153)" style="cursor:pointer;" ><text y="16" style="font-size:11px;font-weight:bold;color:#0d233a;text-shadow:0 0 6px contrast, 0 0 3px contrast;fill:#0d233a;text-decoration:underline;"  x="5"><tspan>260</tspan></text></g></g><g transform="translate(260,359)"  class="highcharts-legend"><g ><g><g transform="translate(8,3)"  class="highcharts-legend-item"><text y="15"  text-anchor="start" style="color:black;font-size:12px;font-weight:bold;cursor:pointer;font:9pt trebuchet ms, verdana, sans-serif;fill:black;" x="21">ประชากร</text><rect fill="#CCC"  height="12" width="16" y="4" x="0"></rect></g></g></g></g><g  class="highcharts-axis-labels highcharts-xaxis-labels"><text class=" highcharts-drilldown-axis-label" opacity="1" y="275" transform="translate(0,0) rotate(-45 84.18096015846832 275)" text-anchor="end" style="color:#0d233a;cursor:pointer;font-size:11px;font:11px trebuchet ms, verdana, sans-serif;fill:#0d233a;width:400px;text-overflow:ellipsis;font-weight:bold;text-decoration:underline;" x="84.18096015846832"><tspan>บ้านแพงพวย หมู่ 1</tspan></text><text class=" highcharts-drilldown-axis-label" opacity="1" y="275" transform="translate(0,0) rotate(-45 114.5339013349389 275)" text-anchor="end" style="color:#0d233a;cursor:pointer;font-size:11px;font:11px trebuchet ms, verdana, sans-serif;fill:#0d233a;width:400px;text-overflow:ellipsis;font-weight:bold;text-decoration:underline;" x="114.5339013349389"><tspan>บ้านทุ่งสะเดา</tspan></text><text class=" highcharts-drilldown-axis-label" opacity="1" y="275" transform="translate(0,0) rotate(-45 144.88684251140953 275)" text-anchor="end" style="color:#0d233a;cursor:pointer;font-size:11px;font:11px trebuchet ms, verdana, sans-serif;fill:#0d233a;width:400px;text-overflow:ellipsis;font-weight:bold;text-decoration:underline;" x="144.88684251140953"><tspan>บ้านทุ่ง</tspan></text><text class=" highcharts-drilldown-axis-label" opacity="1" y="275" transform="translate(0,0) rotate(-45 175.2397836878801 275)" text-anchor="end" style="color:#0d233a;cursor:pointer;font-size:11px;font:11px trebuchet ms, verdana, sans-serif;fill:#0d233a;width:400px;text-overflow:ellipsis;font-weight:bold;text-decoration:underline;" x="175.2397836878801"><tspan>บ้านคอกควาย</tspan></text><text class=" highcharts-drilldown-axis-label" opacity="1" y="275" transform="translate(0,0) rotate(-45 205.59272486435069 275)" text-anchor="end" style="color:#0d233a;cursor:pointer;font-size:11px;font:11px trebuchet ms, verdana, sans-serif;fill:#0d233a;width:400px;text-overflow:ellipsis;font-weight:bold;text-decoration:underline;" x="205.59272486435069"><tspan>บ้านแพงพวย หมู่ 9</tspan></text><text class=" highcharts-drilldown-axis-label" opacity="1" y="275" transform="translate(0,0) rotate(-45 235.94566604082127 275)" text-anchor="end" style="color:#0d233a;cursor:pointer;font-size:11px;font:11px trebuchet ms, verdana, sans-serif;fill:#0d233a;width:400px;text-overflow:ellipsis;font-weight:bold;text-decoration:underline;" x="235.94566604082127"><tspan>บ้านหนองตาเข้ม</tspan></text><text class=" highcharts-drilldown-axis-label" opacity="1" y="275" transform="translate(0,0) rotate(-45 266.2986072172919 275)" text-anchor="end" style="color:#0d233a;cursor:pointer;font-size:11px;font:11px trebuchet ms, verdana, sans-serif;fill:#0d233a;width:400px;text-overflow:ellipsis;font-weight:bold;text-decoration:underline;" x="266.2986072172919"><tspan>บ้านหนองงิ้ว</tspan></text><text class=" highcharts-drilldown-axis-label" opacity="1" y="275" transform="translate(0,0) rotate(-45 296.6515483937624 275)" text-anchor="end" style="color:#0d233a;cursor:pointer;font-size:11px;font:11px trebuchet ms, verdana, sans-serif;fill:#0d233a;width:400px;text-overflow:ellipsis;font-weight:bold;text-decoration:underline;" x="296.6515483937624"><tspan>ชุมชนวัดร่องมันเทศ</tspan></text><text class=" highcharts-drilldown-axis-label" opacity="1" y="275" transform="translate(0,0) rotate(-45 327.004489570233 275)" text-anchor="end" style="color:#0d233a;cursor:pointer;font-size:11px;font:11px trebuchet ms, verdana, sans-serif;fill:#0d233a;width:400px;text-overflow:ellipsis;font-weight:bold;text-decoration:underline;" x="327.004489570233"><tspan>ชุมชนวัดป่าเรไร</tspan></text><text class=" highcharts-drilldown-axis-label" opacity="1" y="275" transform="translate(0,0) rotate(-45 357.3574307467036 275)" text-anchor="end" style="color:#0d233a;cursor:pointer;font-size:11px;font:11px trebuchet ms, verdana, sans-serif;fill:#0d233a;width:400px;text-overflow:ellipsis;font-weight:bold;text-decoration:underline;" x="357.3574307467036"><tspan>ชุมชนวัดหัวสะพาน</tspan></text><text class=" highcharts-drilldown-axis-label" opacity="1" y="275" transform="translate(0,0) rotate(-45 387.71037192317414 275)" text-anchor="end" style="color:#0d233a;cursor:pointer;font-size:11px;font:11px trebuchet ms, verdana, sans-serif;fill:#0d233a;width:400px;text-overflow:ellipsis;font-weight:bold;text-decoration:underline;" x="387.71037192317414"><tspan>ชุมชนโคกหลวงพ่อ</tspan></text><text class=" highcharts-drilldown-axis-label" opacity="1" y="275" transform="translate(0,0) rotate(-45 418.06331309964474 275)" text-anchor="end" style="color:#0d233a;cursor:pointer;font-size:11px;font:11px trebuchet ms, verdana, sans-serif;fill:#0d233a;width:400px;text-overflow:ellipsis;font-weight:bold;text-decoration:underline;" x="418.06331309964474"><tspan>ชุมชนบ้านหนองรี</tspan></text><text class=" highcharts-drilldown-axis-label" opacity="1" y="275" transform="translate(0,0) rotate(-45 448.41625427611535 275)" text-anchor="end" style="color:#0d233a;cursor:pointer;font-size:11px;font:11px trebuchet ms, verdana, sans-serif;fill:#0d233a;width:400px;text-overflow:ellipsis;font-weight:bold;text-decoration:underline;" x="448.41625427611535"><tspan>ชุมชนบ้านหนองเสม็ด</tspan></text><text class=" highcharts-drilldown-axis-label" opacity="1" y="275" transform="translate(0,0) rotate(-45 478.7691954525859 275)" text-anchor="end" style="color:#0d233a;cursor:pointer;font-size:11px;font:11px trebuchet ms, verdana, sans-serif;fill:#0d233a;width:400px;text-overflow:ellipsis;font-weight:bold;text-decoration:underline;" x="478.7691954525859"><tspan>ชุมชนวัดขุนก้อง</tspan></text><text class=" highcharts-drilldown-axis-label" opacity="1" y="275" transform="translate(0,0) rotate(-45 509.1221366290565 275)" text-anchor="end" style="color:#0d233a;cursor:pointer;font-size:11px;font:11px trebuchet ms, verdana, sans-serif;fill:#0d233a;width:400px;text-overflow:ellipsis;font-weight:bold;text-decoration:underline;" x="509.1221366290565"><tspan>ชุมชนวัดใหม่เรไรทอง</tspan></text><text class=" highcharts-drilldown-axis-label" opacity="1" y="275" transform="translate(0,0) rotate(-45 539.475077805527 275)" text-anchor="end" style="color:#0d233a;cursor:pointer;font-size:11px;font:11px trebuchet ms, verdana, sans-serif;fill:#0d233a;width:400px;text-overflow:ellipsis;font-weight:bold;text-decoration:underline;" x="539.475077805527"><tspan>ชุมชนบ้านถนนหัก</tspan></text><text class=" highcharts-drilldown-axis-label" opacity="1" y="275" transform="translate(0,0) rotate(-45 569.8280189819977 275)" text-anchor="end" style="color:#0d233a;cursor:pointer;font-size:11px;font:11px trebuchet ms, verdana, sans-serif;fill:#0d233a;width:400px;text-overflow:ellipsis;font-weight:bold;text-decoration:underline;" x="569.8280189819977"><tspan>ชุมชนวัดถนนหัก</tspan></text></g><g  class="highcharts-axis-labels highcharts-yaxis-labels"><text opacity="1" y="263" transform="translate(0,0)" text-anchor="end" style="color:#000;cursor:default;font-size:11px;font:11px trebuchet ms, verdana, sans-serif;fill:#000;width:188px;text-overflow:clip;" x="59">0</text><text opacity="1" y="192" transform="translate(0,0)" text-anchor="end" style="color:#000;cursor:default;font-size:11px;font:11px trebuchet ms, verdana, sans-serif;fill:#000;width:188px;text-overflow:clip;" x="59">500</text><text opacity="1" y="121" transform="translate(0,0)" text-anchor="end" style="color:#000;cursor:default;font-size:11px;font:11px trebuchet ms, verdana, sans-serif;fill:#000;width:188px;text-overflow:clip;" x="59">1000</text><text opacity="1" y="50" transform="translate(0,0)" text-anchor="end" style="color:#000;cursor:default;font-size:11px;font:11px trebuchet ms, verdana, sans-serif;fill:#000;width:188px;text-overflow:clip;" x="59">1500</text></g><g transform="translate(0,-9999)" style="cursor:default;padding:0;white-space:nowrap;"  class="highcharts-tooltip"><path transform="translate(1, 1)" stroke-width="5" stroke-opacity="0.049999999999999996" stroke="black"  d="M 3.5 0.5 L 13.5 0.5 C 16.5 0.5 16.5 0.5 16.5 3.5 L 16.5 13.5 C 16.5 16.5 16.5 16.5 13.5 16.5 L 3.5 16.5 C 0.5 16.5 0.5 16.5 0.5 13.5 L 0.5 3.5 C 0.5 0.5 0.5 0.5 3.5 0.5" fill="none"></path><path transform="translate(1, 1)" stroke-width="3" stroke-opacity="0.09999999999999999" stroke="black"  d="M 3.5 0.5 L 13.5 0.5 C 16.5 0.5 16.5 0.5 16.5 3.5 L 16.5 13.5 C 16.5 16.5 16.5 16.5 13.5 16.5 L 3.5 16.5 C 0.5 16.5 0.5 16.5 0.5 13.5 L 0.5 3.5 C 0.5 0.5 0.5 0.5 3.5 0.5" fill="none"></path><path transform="translate(1, 1)" stroke-width="1" stroke-opacity="0.15" stroke="black"  d="M 3.5 0.5 L 13.5 0.5 C 16.5 0.5 16.5 0.5 16.5 3.5 L 16.5 13.5 C 16.5 16.5 16.5 16.5 13.5 16.5 L 3.5 16.5 C 0.5 16.5 0.5 16.5 0.5 13.5 L 0.5 3.5 C 0.5 0.5 0.5 0.5 3.5 0.5" fill="none"></path><path d="M 3.5 0.5 L 13.5 0.5 C 16.5 0.5 16.5 0.5 16.5 3.5 L 16.5 13.5 C 16.5 16.5 16.5 16.5 13.5 16.5 L 3.5 16.5 C 0.5 16.5 0.5 16.5 0.5 13.5 L 0.5 3.5 C 0.5 0.5 0.5 0.5 3.5 0.5" fill="rgb(249, 249, 249)" fill-opacity=" .85"></path><text y="20" style="font-size:12px;color:#333333;fill:#333333;"  x="8"></text></g><text y="395" style="cursor:pointer;color:#909090;font-size:9px;fill:#909090;"  text-anchor="end" x="590">Highcharts.com</text></svg>